<?xml version="1.0" encoding="UTF-8"?>
<svg xmlns="http://www.w3.org/2000/svg" viewBox="0 0 850.39 269.39">
  <defs>
    <style>
      .cls-1 {
        fill: #ff6734;
      }

      .cls-2 {
        fill: #2a00e2;
      }

      .cls-3 {
        fill: #fff;
      }
    </style>
  </defs>
  <g id="background">
    <rect width="850.39" height="269.39"/>
  </g>
  <g id="Layer_1" data-name="Layer 1">
    <g>
      <g>
        <path class="cls-3" d="M168.34,182.95h19.65c6.92,0,11.79,4.43,11.79,10.67,0,4.55-2.25,7.17-6.11,9.42,4.93,2.5,7.8,6.36,7.8,11.04,0,6.86-5.3,11.73-12.72,11.73h-20.39v-42.85ZM186.74,201.1c4.74,0,8.11-2.87,8.11-6.86s-3.37-6.86-8.11-6.86h-13.53v13.72h13.53ZM187.48,221.37c5.3,0,9.04-3.31,9.04-7.92s-3.74-7.92-9.04-7.92h-14.28v15.84h14.28Z"/>
        <path class="cls-3" d="M235.94,206.15v19.65h-4.68v-5.05c-2.31,3.81-7.11,5.8-11.35,5.8-6.8,0-11.79-3.93-11.79-10.29s5.74-10.73,12.66-10.73c3.49,0,7.17.75,10.48,1.81v-1.18c0-4.37-1.75-9.36-8.73-9.36-3.24,0-6.49,1.43-9.42,2.93l-1.87-3.81c4.62-2.31,8.48-3.12,11.6-3.12,8.79,0,13.1,5.55,13.1,13.35ZM231.26,215.69v-4.93c-2.93-.81-6.24-1.31-9.73-1.31-4.8,0-8.85,2.75-8.85,6.61s3.49,6.36,8.04,6.36c4.24,0,9.29-2.18,10.54-6.74Z"/>
        <path class="cls-3" d="M263.06,192.8v4.18c-7.3,0-12.47,4.49-12.47,10.79v18.02h-4.68v-32.24h4.68v6.3c1.93-4.3,6.55-7.05,12.47-7.05Z"/>
        <path class="cls-3" d="M267.79,209.64c0-9.17,7.67-16.84,16.72-16.84,4.37,0,8.42,1.81,11.48,4.74l-3.24,3.18c-2.12-2.31-5.05-3.74-8.23-3.74-6.42,0-11.79,5.8-11.79,12.66s5.36,12.72,11.79,12.72c3.24,0,6.24-1.5,8.42-3.93l3.24,3.18c-3.06,3.05-7.17,4.93-11.66,4.93-9.04,0-16.72-7.73-16.72-16.9Z"/>
        <path class="cls-3" d="M328.03,218.5l2.87,3.06c-2.81,3.06-8.48,4.99-12.97,4.99-8.61,0-16.34-7.05-16.34-16.96s7.23-16.78,15.9-16.78c9.73,0,15.28,7.36,15.28,18.65h-26.38c.69,6.3,5.11,10.91,11.48,10.91,3.8,0,8.17-1.68,10.17-3.87ZM306.45,207.27h21.7c-.62-5.8-4.05-10.29-10.48-10.29-5.74,0-10.35,4.05-11.23,10.29Z"/>
        <path class="cls-3" d="M340.43,182.2h4.68v43.59h-4.68v-43.59Z"/>
        <path class="cls-3" d="M352.84,209.64c0-9.17,7.67-16.84,16.72-16.84s16.65,7.67,16.65,16.84-7.61,16.9-16.65,16.9-16.72-7.73-16.72-16.9ZM381.28,209.64c0-6.86-5.36-12.66-11.73-12.66s-11.79,5.8-11.79,12.66,5.36,12.72,11.79,12.72,11.73-5.8,11.73-12.72Z"/>
        <path class="cls-3" d="M421.38,205.28v20.52h-4.68v-19.89c0-5.24-3.31-8.92-8.05-8.92-5.43,0-9.98,3.8-9.98,8.29v20.52h-4.68v-32.24h4.68v5.18c1.87-3.43,6.05-5.92,10.6-5.92,7.11,0,12.1,5.18,12.1,12.47Z"/>
        <path class="cls-3" d="M457.04,206.15v19.65h-4.68v-5.05c-2.31,3.81-7.11,5.8-11.35,5.8-6.8,0-11.79-3.93-11.79-10.29s5.74-10.73,12.66-10.73c3.49,0,7.17.75,10.48,1.81v-1.18c0-4.37-1.75-9.36-8.73-9.36-3.24,0-6.49,1.43-9.42,2.93l-1.87-3.81c4.62-2.31,8.48-3.12,11.6-3.12,8.79,0,13.1,5.55,13.1,13.35ZM452.37,215.69v-4.93c-2.93-.81-6.24-1.31-9.73-1.31-4.8,0-8.85,2.75-8.85,6.61s3.49,6.36,8.04,6.36c4.24,0,9.29-2.18,10.54-6.74Z"/>
        <path class="cls-3" d="M482.98,221.74l15.65-13.35c6.05-5.18,8.55-9.29,8.55-13.53,0-5.24-4.37-8.3-8.92-8.3-4.99,0-8.54,2.68-11.48,6.67l-3.43-2.81c3.55-5.05,8.36-8.23,15.09-8.23,7.42,0,13.66,4.93,13.66,12.6,0,5.8-2.87,10.42-10.1,16.65l-11.23,9.73h21.77v4.61h-29.56v-4.05Z"/>
        <path class="cls-3" d="M520.33,204.34c0-12.97,7.36-22.14,17.84-22.14s17.77,9.17,17.77,22.14-7.36,22.2-17.77,22.2-17.84-9.17-17.84-22.2ZM551.01,204.34c0-10.35-5.3-17.65-12.85-17.65s-12.91,7.3-12.91,17.65,5.36,17.71,12.91,17.71,12.85-7.36,12.85-17.71Z"/>
        <path class="cls-3" d="M562.66,221.74l15.65-13.35c6.05-5.18,8.55-9.29,8.55-13.53,0-5.24-4.37-8.3-8.92-8.3-4.99,0-8.54,2.68-11.48,6.67l-3.43-2.81c3.55-5.05,8.36-8.23,15.09-8.23,7.42,0,13.66,4.93,13.66,12.6,0,5.8-2.87,10.42-10.1,16.65l-11.23,9.73h21.77v4.61h-29.56v-4.05Z"/>
        <path class="cls-3" d="M631.45,212.39c0,7.92-6.17,14.16-15.09,14.16-11.6,0-16.28-9.42-16.28-21.52,0-12.78,7.61-22.83,17.34-22.83,5.24,0,8.98,2.06,12.16,5.11l-2.68,3.81c-2.68-2.62-5.49-4.49-9.6-4.49-6.86,0-12.29,8.11-12.29,18.4v.56c2.62-4.12,7.05-6.55,12.1-6.55,7.8,0,14.35,4.86,14.35,13.35ZM626.52,212.63c0-5.86-4.55-9.42-10.29-9.42-5.43,0-9.61,3.24-10.67,7.98,1.25,6.49,4.74,11.16,10.73,11.16,6.42,0,10.23-4.99,10.23-9.73Z"/>
      </g>
      <g>
        <path class="cls-3" d="M164.84,81.06l3.8-4.68c3.8,3.62,8.29,5.99,14.09,5.99s8.98-3.12,8.98-6.55c0-4.05-3.55-5.61-10.72-7.23-8.73-2.06-14.53-4.68-14.53-12.41,0-7.17,6.23-12.6,14.84-12.6,6.61,0,11.53,2.43,15.65,6.05l-3.62,4.74c-3.62-3.31-7.92-5.24-12.28-5.24-4.8,0-8.17,3.06-8.17,6.49,0,3.99,3.68,5.36,10.72,7.05,8.54,2,14.46,4.87,14.46,12.54,0,7.24-5.49,12.72-15.59,12.72-7.17,0-13.09-2.49-17.64-6.86Z"/>
        <path class="cls-3" d="M233.99,54.99v32.24h-6.17v-4.68c-1.93,3.18-5.86,5.43-10.22,5.43-7.11,0-12.09-5.18-12.09-12.47v-20.52h6.05v19.46c0,4.8,3.05,8.17,7.42,8.17s8.35-2.93,8.85-6.74v-20.89h6.17Z"/>
        <path class="cls-3" d="M290.6,66.71v20.52h-6.05v-19.58c0-4.74-2.81-8.05-6.86-8.05-4.61,0-7.85,3.06-7.85,7.48v20.15h-6.05v-19.58c0-4.74-2.81-8.05-6.86-8.05-4.61,0-7.85,3.06-7.85,7.48v20.15h-6.17v-32.24h6.17v4.49c1.62-3.18,4.99-5.24,9.1-5.24,4.68,0,8.48,2.49,10.35,6.49,1.5-3.99,5.61-6.49,10.47-6.49,6.73,0,11.6,5.18,11.6,12.47Z"/>
        <path class="cls-3" d="M347.09,66.71v20.52h-6.05v-19.58c0-4.74-2.81-8.05-6.86-8.05-4.61,0-7.85,3.06-7.85,7.48v20.15h-6.05v-19.58c0-4.74-2.81-8.05-6.86-8.05-4.61,0-7.85,3.06-7.85,7.48v20.15h-6.17v-32.24h6.17v4.49c1.62-3.18,4.99-5.24,9.1-5.24,4.68,0,8.48,2.49,10.35,6.49,1.5-3.99,5.61-6.49,10.47-6.49,6.73,0,11.6,5.18,11.6,12.47Z"/>
        <path class="cls-3" d="M379.96,79l3.87,3.99c-2.87,3.06-8.48,4.99-13.03,4.99-8.98,0-16.58-7.05-16.58-16.96s7.17-16.78,16.08-16.78c9.85,0,15.52,7.48,15.52,19.02h-25.37c.81,5.36,4.74,9.23,10.29,9.23,3.37,0,7.29-1.5,9.23-3.49ZM360.51,68.33h19.33c-.69-4.99-3.74-8.61-9.29-8.61-4.99,0-9.04,3.37-10.04,8.61Z"/>
        <path class="cls-3" d="M411.45,54.24v5.36c-6.67,0-11.41,3.68-11.97,9.29v18.34h-6.17v-32.24h6.17v6.17c2.06-4.24,6.42-6.92,11.97-6.92Z"/>
        <path class="cls-3" d="M433.21,81.06l3.8-4.68c3.8,3.62,8.29,5.99,14.09,5.99s8.98-3.12,8.98-6.55c0-4.05-3.55-5.61-10.72-7.23-8.73-2.06-14.53-4.68-14.53-12.41,0-7.17,6.23-12.6,14.84-12.6,6.61,0,11.53,2.43,15.65,6.05l-3.62,4.74c-3.62-3.31-7.92-5.24-12.28-5.24-4.8,0-8.17,3.06-8.17,6.49,0,3.99,3.68,5.36,10.72,7.05,8.54,2,14.46,4.87,14.46,12.54,0,7.24-5.49,12.72-15.59,12.72-7.17,0-13.09-2.49-17.64-6.86Z"/>
        <path class="cls-3" d="M472.25,71.08c0-9.17,7.79-16.84,17.02-16.84,4.61,0,8.79,1.93,11.84,4.99l-4.18,3.87c-1.93-2.18-4.74-3.49-7.73-3.49-5.86,0-10.72,5.24-10.72,11.48s4.86,11.54,10.78,11.54c2.99,0,5.86-1.37,7.85-3.62l4.18,3.8c-3.12,3.18-7.29,5.18-12.09,5.18-9.16,0-16.96-7.73-16.96-16.9Z"/>
        <path class="cls-3" d="M536.4,66.71v20.52h-6.05v-19.46c0-4.8-3.05-8.17-7.42-8.17-4.86,0-8.91,3.43-8.91,7.61v20.02h-6.11v-43.6h6.11v16.15c1.93-3.24,5.86-5.55,10.29-5.55,7.11,0,12.09,5.18,12.09,12.47Z"/>
        <path class="cls-3" d="M543.52,71.08c0-9.17,7.79-16.84,17.02-16.84s16.89,7.67,16.89,16.84-7.73,16.9-16.89,16.9-17.02-7.73-17.02-16.9ZM571.26,71.08c0-6.24-4.92-11.48-10.72-11.48s-10.85,5.24-10.85,11.48,4.92,11.54,10.85,11.54,10.72-5.24,10.72-11.54Z"/>
        <path class="cls-3" d="M582.93,71.08c0-9.17,7.79-16.84,17.02-16.84s16.89,7.67,16.89,16.84-7.73,16.9-16.89,16.9-17.02-7.73-17.02-16.9ZM610.67,71.08c0-6.24-4.92-11.48-10.72-11.48s-10.85,5.24-10.85,11.48,4.92,11.54,10.85,11.54,10.72-5.24,10.72-11.54Z"/>
        <path class="cls-3" d="M624.08,43.63h6.11v43.6h-6.11v-43.6Z"/>
        <path class="cls-3" d="M655.26,71.08c0-9.17,7.79-16.84,17.02-16.84s16.89,7.67,16.89,16.84-7.73,16.9-16.89,16.9-17.02-7.73-17.02-16.9ZM683,71.08c0-6.24-4.92-11.48-10.72-11.48s-10.85,5.24-10.85,11.48,4.92,11.54,10.85,11.54,10.72-5.24,10.72-11.54Z"/>
        <path class="cls-3" d="M724.9,66.71v20.52h-6.05v-19.46c0-4.8-3.05-8.17-7.42-8.17s-8.35,2.93-8.85,6.74v20.89h-6.17v-32.24h6.17v4.68c1.93-3.18,5.86-5.43,10.22-5.43,7.11,0,12.09,5.18,12.09,12.47Z"/>
        <path class="cls-3" d="M193.27,139.26h-14.9l-2.18,5.74h-13.65l16.46-42.85h13.65l16.46,42.85h-13.65l-2.18-5.74ZM189.84,130.34l-3.99-10.42-4.05,10.42h8.04Z"/>
        <path class="cls-3" d="M245.15,112.75v32.24h-12.03v-3.24c-1.99,2.49-5.24,3.99-9.1,3.99-6.92,0-11.84-5.18-11.84-12.47v-20.52h11.47v17.71c0,3.12,1.99,5.3,4.86,5.3,2.68,0,4.61-2.06,4.61-4.93v-18.09h12.03Z"/>
        <path class="cls-3" d="M272.71,142.44c-1.99,1.93-5.42,3.31-8.29,3.31-6.42,0-10.91-4.49-10.91-10.91v-12.6h-4.05v-9.48h4.05v-8.86h11.47v8.86h6.36v9.48h-6.36v10.23c0,1.93,1.12,3.3,2.74,3.3,1.12,0,2.31-.37,2.93-.94l2.06,7.61Z"/>
        <path class="cls-3" d="M275.96,128.84c0-9.17,8.29-16.84,18.2-16.84s18.14,7.67,18.14,16.84-8.29,16.9-18.14,16.9-18.2-7.73-18.2-16.9ZM301.08,128.84c0-3.74-3.18-6.86-6.92-6.86s-6.98,3.12-6.98,6.86,3.18,6.92,6.98,6.92,6.92-3.18,6.92-6.92Z"/>
        <path class="cls-3" d="M350.09,124.48v20.52h-11.47v-17.71c0-3.12-1.99-5.3-4.86-5.3-2.68,0-4.61,2.06-4.61,4.93v18.09h-12.03v-32.24h12.03v3.24c1.99-2.49,5.24-3.99,9.1-3.99,6.92,0,11.84,5.18,11.84,12.47Z"/>
        <path class="cls-3" d="M354.77,128.84c0-9.17,8.29-16.84,18.2-16.84s18.14,7.67,18.14,16.84-8.29,16.9-18.14,16.9-18.2-7.73-18.2-16.9ZM379.9,128.84c0-3.74-3.18-6.86-6.92-6.86s-6.98,3.12-6.98,6.86,3.18,6.92,6.98,6.92,6.92-3.18,6.92-6.92Z"/>
        <path class="cls-3" d="M449.1,124.48v20.58h-11.47v-18.4c0-2.74-1.87-4.68-4.55-4.68s-4.55,1.81-4.55,4.3v18.77h-11.47v-18.4c0-2.74-1.87-4.68-4.55-4.68s-4.55,1.81-4.55,4.3v18.71h-12.03v-32.24h12.03v3.93c1.56-2.87,4.55-4.68,8.35-4.68,4.18,0,7.92,1.99,10.1,5.3,1.87-3.24,5.74-5.3,10.47-5.3,6.73,0,12.22,5.18,12.22,12.47Z"/>
        <path class="cls-3" d="M453.79,128.84c0-9.17,8.29-16.84,18.2-16.84s18.14,7.67,18.14,16.84-8.29,16.9-18.14,16.9-18.2-7.73-18.2-16.9ZM478.91,128.84c0-3.74-3.18-6.86-6.92-6.86s-6.98,3.12-6.98,6.86,3.18,6.92,6.98,6.92,6.92-3.18,6.92-6.92Z"/>
        <path class="cls-3" d="M527.73,112.75v32.24h-12.03v-3.24c-1.99,2.49-5.24,3.99-9.1,3.99-6.92,0-11.85-5.18-11.85-12.47v-20.52h11.47v17.71c0,3.12,1.99,5.3,4.86,5.3,2.68,0,4.61-2.06,4.61-4.93v-18.09h12.03Z"/>
        <path class="cls-3" d="M531.61,140.88l4.49-7.3c3.12,2.18,7.73,3.81,11.16,3.81,2.24,0,3.05-.56,3.05-1.62,0-1.12-1.87-1.75-4.86-2.37-5.86-1.25-12.41-2.68-12.41-10.29,0-6.24,5.05-11.1,13.47-11.1,4.99,0,9.79,1.81,13.47,4.24l-4.05,7.36c-2.68-1.75-6.36-3.43-9.41-3.43-1.68,0-2.81.87-2.81,1.81,0,1.06,1.43,1.25,4.68,2,5.86,1.31,12.59,3.24,12.59,10.85,0,6.67-5.3,10.91-14.03,10.91-5.61,0-11.41-1.81-15.34-4.87Z"/>
        <path class="cls-3" d="M583.17,102.15h15.96c14.96,0,25.56,8.86,25.56,21.39s-10.6,21.46-25.56,21.46h-15.96v-42.85ZM601.13,134.02c6.48,0,11.1-4.37,11.1-10.48s-4.61-10.41-11.1-10.41h-5.86v20.89h5.86Z"/>
        <path class="cls-3" d="M652.13,112v9.98c-6.36,0-10.1,3.49-10.1,9.36v13.66h-12.03v-32.24h12.03v5.74c2.12-3.99,5.74-6.49,10.1-6.49Z"/>
        <path class="cls-3" d="M656.37,103.08c0-3.24,2.74-6.11,6.23-6.11s6.11,2.87,6.11,6.11-2.74,6.24-6.11,6.24-6.23-2.87-6.23-6.24ZM656.5,112.75h12.03v32.24h-12.03v-32.24Z"/>
        <path class="cls-3" d="M672.27,112.75h12.34l7.29,18.46,7.11-18.46h12.34l-13.9,32.24h-11.1l-14.09-32.24Z"/>
        <path class="cls-3" d="M714.92,103.08c0-3.24,2.74-6.11,6.23-6.11s6.11,2.87,6.11,6.11-2.74,6.24-6.11,6.24-6.23-2.87-6.23-6.24ZM715.05,112.75h12.03v32.24h-12.03v-32.24Z"/>
        <path class="cls-3" d="M766.73,124.48v20.52h-11.47v-17.71c0-3.12-1.99-5.3-4.86-5.3-2.68,0-4.61,2.06-4.61,4.93v18.09h-12.03v-32.24h12.03v3.24c1.99-2.49,5.24-3.99,9.1-3.99,6.92,0,11.84,5.18,11.84,12.47Z"/>
        <path class="cls-3" d="M807.51,112.75v28.81c0,8.3-7.61,14.16-18.33,14.16-5.98,0-11.6-1.81-15.02-4.3l3.93-8.3c1.87,1.56,5.61,2.62,9.16,2.62,4.8,0,8.17-2.06,8.17-4.8v-2.56c-2.56,2.68-6.23,4.24-9.97,4.24-7.79,0-13.96-6.36-13.96-15.34s6.17-15.28,13.96-15.28c3.87,0,7.98,1.81,9.97,4.3v-3.55h12.09ZM795.42,127.28c0-3.12-2.43-5.3-5.8-5.3s-5.8,2.18-5.8,5.3,2.43,5.36,5.8,5.36,5.8-2.24,5.8-5.36Z"/>
      </g>
      <g>
        <rect class="cls-3" x="90.93" y="43.53" width="5.29" height="100.06"/>
        <rect class="cls-3" x="90.93" y="43.53" width="5.29" height="100.06" transform="translate(.01 187.14) rotate(-90)"/>
        <rect class="cls-3" x="90.93" y="43.53" width="5.29" height="100.06" transform="translate(93.57 -38.76) rotate(45)"/>
        <rect class="cls-3" x="90.93" y="43.53" width="5.29" height="100.06" transform="translate(-38.75 93.57) rotate(-45)"/>
        <rect class="cls-3" x="90.93" y="43.53" width="5.29" height="100.06" transform="translate(-28.71 43) rotate(-22.53)"/>
        <rect class="cls-3" x="90.93" y="43.53" width="5.29" height="100.06" transform="translate(43.01 215.85) rotate(-112.53)"/>
        <rect class="cls-3" x="90.93" y="43.53" width="5.29" height="100.06" transform="translate(42.86 -28.66) rotate(22.47)"/>
        <rect class="cls-3" x="90.93" y="43.53" width="5.29" height="100.06" transform="translate(-28.65 144.28) rotate(-67.53)"/>
        <g>
          <rect class="cls-2" x="90.93" y="54.11" width="5.29" height="5.29"/>
          <rect class="cls-1" x="90.93" y="43.53" width="5.29" height="5.29"/>
          <rect class="cls-2" x="90.93" y="127.72" width="5.29" height="5.29"/>
          <rect class="cls-1" x="90.93" y="138.3" width="5.29" height="5.29"/>
        </g>
        <g>
          <rect class="cls-1" x="64.9" y="64.89" width="5.29" height="5.29" transform="translate(-27.97 67.55) rotate(-45)"/>
          <rect class="cls-2" x="57.42" y="57.41" width="5.29" height="5.29" transform="translate(-24.87 60.07) rotate(-45)"/>
          <rect class="cls-2" x="68.65" y="68.63" width="5.29" height="5.29" transform="translate(-29.52 71.29) rotate(-45)"/>
          <rect class="cls-2" x="72.39" y="72.37" width="5.29" height="5.29" transform="translate(-31.07 75.03) rotate(-45)"/>
          <rect class="cls-2" x="105.73" y="105.72" width="5.29" height="5.29" transform="translate(-44.88 108.38) rotate(-45)"/>
          <rect class="cls-2" x="113.22" y="113.2" width="5.29" height="5.29" transform="translate(-47.98 115.86) rotate(-45)"/>
          <rect class="cls-1" x="116.96" y="116.94" width="5.29" height="5.29" transform="translate(-49.53 119.6) rotate(-45)"/>
          <rect class="cls-2" x="120.7" y="120.69" width="5.29" height="5.29" transform="translate(-51.08 123.34) rotate(-45)"/>
        </g>
        <g>
          <rect class="cls-2" x="134.72" y="109.03" width="5.29" height="5.29" transform="translate(293.06 27.42) rotate(112.47)"/>
          <rect class="cls-2" x="129.83" y="107.01" width="5.29" height="5.29" transform="translate(284.44 29.15) rotate(112.47)"/>
          <rect class="cls-2" x="120.05" y="102.96" width="5.29" height="5.29" transform="translate(267.19 32.59) rotate(112.47)"/>
          <rect class="cls-1" x="115.17" y="100.94" width="5.29" height="5.29" transform="translate(258.56 34.31) rotate(112.47)"/>
          <rect class="cls-2" x="110.28" y="98.92" width="5.29" height="5.29" transform="translate(249.94 36.04) rotate(112.47)"/>
          <rect class="cls-2" x="71.58" y="82.92" width="5.29" height="5.29" transform="translate(181.67 49.67) rotate(112.47)"/>
          <rect class="cls-1" x="66.7" y="80.9" width="5.29" height="5.29" transform="translate(173.04 51.39) rotate(112.47)"/>
          <rect class="cls-2" x="56.92" y="76.85" width="5.29" height="5.29" transform="translate(155.79 54.84) rotate(112.47)"/>
          <rect class="cls-2" x="47.14" y="72.81" width="5.29" height="5.29" transform="translate(138.54 58.28) rotate(112.47)"/>
        </g>
        <g>
          <rect class="cls-1" x="74.8" y="52.04" width="5.29" height="5.29" transform="translate(-15.04 33.85) rotate(-22.53)"/>
          <rect class="cls-2" x="78.86" y="61.81" width="5.29" height="5.29" transform="translate(-18.48 36.15) rotate(-22.53)"/>
          <rect class="cls-2" x="98.95" y="110.26" width="5.29" height="5.29" transform="translate(-35.51 47.54) rotate(-22.53)"/>
          <rect class="cls-2" x="100.98" y="115.14" width="5.29" height="5.29" transform="translate(-37.22 48.69) rotate(-22.53)"/>
          <rect class="cls-2" x="105.03" y="124.92" width="5.29" height="5.29" transform="translate(-40.66 50.99) rotate(-22.53)"/>
          <rect class="cls-1" x="107.06" y="129.8" width="5.29" height="5.29" transform="translate(-42.38 52.14) rotate(-22.53)"/>
          <rect class="cls-2" x="109.09" y="134.69" width="5.29" height="5.29" transform="translate(-44.09 53.29) rotate(-22.53)"/>
        </g>
      </g>
    </g>
  </g>
</svg>