<?xml version="1.0" encoding="UTF-8"?>
<svg xmlns="http://www.w3.org/2000/svg" viewBox="40 40 107.6 107.6">
  <defs>
    <style>
      .cls-1 {
        fill: #ff6734;
      }

      .cls-2 {
        fill: #2a00e2;
      }

      .cls-3 {
        fill: #fff;
      }
    </style>
  </defs>
  <g id="background">
    <rect width="186.81" height="186.81"/>
  </g>
    <g>
      <rect class="cls-3" x="90.93" y="43.2" width="5.29" height="100.06"/>
      <rect class="cls-3" x="90.93" y="43.2" width="5.29" height="100.06" transform="translate(.34 186.81) rotate(-90)"/>
      <rect class="cls-3" x="90.93" y="43.2" width="5.29" height="100.06" transform="translate(93.34 -38.86) rotate(45)"/>
      <rect class="cls-3" x="90.93" y="43.2" width="5.29" height="100.06" transform="translate(-38.52 93.48) rotate(-45)"/>
      <rect class="cls-3" x="90.93" y="43.2" width="5.29" height="100.06" transform="translate(-28.58 42.98) rotate(-22.53)"/>
      <rect class="cls-3" x="90.93" y="43.2" width="5.29" height="100.06" transform="translate(43.31 215.4) rotate(-112.53)"/>
      <rect class="cls-3" x="90.93" y="43.2" width="5.29" height="100.06" transform="translate(42.73 -28.68) rotate(22.47)"/>
      <rect class="cls-3" x="90.93" y="43.2" width="5.29" height="100.06" transform="translate(-28.34 144.08) rotate(-67.53)"/>
      <g>
        <rect class="cls-2" x="90.93" y="53.78" width="5.29" height="5.29"/>
        <rect class="cls-1" x="90.93" y="43.2" width="5.29" height="5.29"/>
        <rect class="cls-2" x="90.93" y="127.4" width="5.29" height="5.29"/>
        <rect class="cls-1" x="90.93" y="137.98" width="5.29" height="5.29"/>
      </g>
      <g>
        <rect class="cls-1" x="64.9" y="64.57" width="5.29" height="5.29" transform="translate(-27.74 67.45) rotate(-45)"/>
        <rect class="cls-2" x="57.42" y="57.08" width="5.29" height="5.29" transform="translate(-24.64 59.97) rotate(-45)"/>
        <rect class="cls-2" x="68.65" y="68.31" width="5.29" height="5.29" transform="translate(-29.29 71.19) rotate(-45)"/>
        <rect class="cls-2" x="72.39" y="72.05" width="5.29" height="5.29" transform="translate(-30.84 74.93) rotate(-45)"/>
        <rect class="cls-2" x="105.73" y="105.39" width="5.29" height="5.29" transform="translate(-44.65 108.28) rotate(-45)"/>
        <rect class="cls-2" x="113.22" y="112.88" width="5.29" height="5.29" transform="translate(-47.75 115.76) rotate(-45)"/>
        <rect class="cls-1" x="116.96" y="116.62" width="5.29" height="5.29" transform="translate(-49.3 119.5) rotate(-45)"/>
        <rect class="cls-2" x="120.7" y="120.36" width="5.29" height="5.29" transform="translate(-50.85 123.24) rotate(-45)"/>
      </g>
      <g>
        <rect class="cls-2" x="134.72" y="108.7" width="5.29" height="5.29" transform="translate(292.76 26.97) rotate(112.47)"/>
        <rect class="cls-2" x="129.83" y="106.68" width="5.29" height="5.29" transform="translate(284.13 28.69) rotate(112.47)"/>
        <rect class="cls-2" x="120.05" y="102.64" width="5.29" height="5.29" transform="translate(266.88 32.14) rotate(112.47)"/>
        <rect class="cls-1" x="115.17" y="100.61" width="5.29" height="5.29" transform="translate(258.26 33.86) rotate(112.47)"/>
        <rect class="cls-2" x="110.28" y="98.59" width="5.29" height="5.29" transform="translate(249.63 35.58) rotate(112.47)"/>
        <rect class="cls-2" x="71.58" y="82.59" width="5.29" height="5.29" transform="translate(181.36 49.22) rotate(112.47)"/>
        <rect class="cls-1" x="66.7" y="80.57" width="5.29" height="5.29" transform="translate(172.74 50.94) rotate(112.47)"/>
        <rect class="cls-2" x="56.92" y="76.52" width="5.29" height="5.29" transform="translate(155.49 54.39) rotate(112.47)"/>
        <rect class="cls-2" x="47.14" y="72.48" width="5.29" height="5.29" transform="translate(138.24 57.83) rotate(112.47)"/>
      </g>
      <g>
        <rect class="cls-1" x="74.8" y="51.71" width="5.29" height="5.29" transform="translate(-14.92 33.82) rotate(-22.53)"/>
        <rect class="cls-2" x="78.86" y="61.48" width="5.29" height="5.29" transform="translate(-18.35 36.12) rotate(-22.53)"/>
        <rect class="cls-2" x="98.95" y="109.93" width="5.29" height="5.29" transform="translate(-35.38 47.52) rotate(-22.53)"/>
        <rect class="cls-2" x="100.98" y="114.82" width="5.29" height="5.29" transform="translate(-37.1 48.67) rotate(-22.53)"/>
        <rect class="cls-2" x="105.03" y="124.59" width="5.29" height="5.29" transform="translate(-40.53 50.97) rotate(-22.53)"/>
        <rect class="cls-1" x="107.06" y="129.47" width="5.29" height="5.29" transform="translate(-42.25 52.12) rotate(-22.53)"/>
        <rect class="cls-2" x="109.09" y="134.36" width="5.29" height="5.29" transform="translate(-43.97 53.27) rotate(-22.53)"/>
      </g>
    </g>
</svg>