<?xml version="1.0" encoding="UTF-8"?>
<svg xmlns="http://www.w3.org/2000/svg" viewBox="0 0 378.99 186.81">
  <defs>
    <style>
      .cls-1 {
        fill: #ff6734;
      }

      .cls-2 {
        fill: #2a00e2;
      }

      .cls-3 {
        fill: #fff;
      }
    </style>
  </defs>
  <g id="background">
    <rect width="378.99" height="186.81"/>
  </g>
  <g id="Layer_1" data-name="Layer 1">
    <g>
      <g>
        <path class="cls-3" d="M262.44,82.09l15.65-13.35c6.05-5.18,8.55-9.29,8.55-13.53,0-5.24-4.37-8.29-8.92-8.29-4.99,0-8.54,2.68-11.48,6.67l-3.43-2.81c3.55-5.05,8.36-8.23,15.09-8.23,7.42,0,13.66,4.93,13.66,12.6,0,5.8-2.87,10.42-10.1,16.65l-11.23,9.73h21.77v4.61h-29.56v-4.05Z"/>
        <path class="cls-3" d="M299.79,64.69c0-12.97,7.36-22.14,17.84-22.14s17.77,9.17,17.77,22.14-7.36,22.2-17.77,22.2-17.84-9.17-17.84-22.2ZM330.47,64.69c0-10.35-5.3-17.65-12.85-17.65s-12.91,7.3-12.91,17.65,5.36,17.71,12.91,17.71,12.85-7.36,12.85-17.71Z"/>
        <path class="cls-3" d="M264.49,139.86l15.65-13.35c6.05-5.18,8.55-9.29,8.55-13.53,0-5.24-4.37-8.29-8.92-8.29-4.99,0-8.54,2.68-11.48,6.67l-3.43-2.81c3.55-5.05,8.36-8.23,15.09-8.23,7.42,0,13.66,4.93,13.66,12.6,0,5.8-2.87,10.42-10.1,16.65l-11.23,9.73h21.77v4.61h-29.56v-4.05Z"/>
        <path class="cls-3" d="M333.28,130.5c0,7.92-6.17,14.16-15.09,14.16-11.6,0-16.28-9.42-16.28-21.52,0-12.78,7.61-22.83,17.34-22.83,5.24,0,8.98,2.06,12.16,5.11l-2.68,3.8c-2.68-2.62-5.49-4.49-9.6-4.49-6.86,0-12.29,8.11-12.29,18.4v.56c2.62-4.12,7.05-6.55,12.1-6.55,7.8,0,14.35,4.86,14.35,13.35ZM328.35,130.75c0-5.86-4.55-9.42-10.29-9.42-5.43,0-9.61,3.24-10.67,7.98,1.25,6.49,4.74,11.16,10.73,11.16,6.42,0,10.23-4.99,10.23-9.73Z"/>
      </g>
      <g>
        <path class="cls-3" d="M175.7,79.97l3.8-4.68c3.8,3.62,8.29,5.99,14.09,5.99s8.98-3.12,8.98-6.55c0-4.05-3.55-5.61-10.72-7.23-8.73-2.06-14.53-4.68-14.53-12.41,0-7.17,6.23-12.6,14.84-12.6,6.61,0,11.53,2.43,15.65,6.05l-3.62,4.74c-3.62-3.3-7.92-5.24-12.28-5.24-4.8,0-8.17,3.06-8.17,6.49,0,3.99,3.68,5.36,10.72,7.05,8.54,1.99,14.46,4.87,14.46,12.54,0,7.23-5.49,12.72-15.59,12.72-7.17,0-13.09-2.5-17.64-6.86Z"/>
        <path class="cls-3" d="M214.36,79.97l3.8-4.68c3.8,3.62,8.29,5.99,14.09,5.99s8.98-3.12,8.98-6.55c0-4.05-3.55-5.61-10.72-7.23-8.73-2.06-14.53-4.68-14.53-12.41,0-7.17,6.23-12.6,14.84-12.6,6.61,0,11.53,2.43,15.65,6.05l-3.62,4.74c-3.62-3.3-7.92-5.24-12.28-5.24-4.8,0-8.17,3.06-8.17,6.49,0,3.99,3.68,5.36,10.72,7.05,8.54,1.99,14.46,4.87,14.46,12.54,0,7.23-5.49,12.72-15.59,12.72-7.17,0-13.09-2.5-17.64-6.86Z"/>
        <path class="cls-3" d="M195.74,138.17h-14.9l-2.18,5.74h-13.65l16.46-42.85h13.65l16.46,42.85h-13.65l-2.18-5.74ZM192.31,129.26l-3.99-10.42-4.05,10.42h8.04Z"/>
        <path class="cls-3" d="M215.38,101.07h15.96c14.96,0,25.56,8.85,25.56,21.39s-10.6,21.45-25.56,21.45h-15.96v-42.85ZM233.34,132.93c6.48,0,11.1-4.37,11.1-10.48s-4.61-10.42-11.1-10.42h-5.86v20.89h5.86Z"/>
      </g>
    </g>
    <g>
      <rect class="cls-3" x="90.93" y="43.2" width="5.29" height="100.06"/>
      <rect class="cls-3" x="90.93" y="43.2" width="5.29" height="100.06" transform="translate(.34 186.81) rotate(-90)"/>
      <rect class="cls-3" x="90.93" y="43.2" width="5.29" height="100.06" transform="translate(93.34 -38.86) rotate(45)"/>
      <rect class="cls-3" x="90.93" y="43.2" width="5.29" height="100.06" transform="translate(-38.52 93.48) rotate(-45)"/>
      <rect class="cls-3" x="90.93" y="43.2" width="5.29" height="100.06" transform="translate(-28.58 42.98) rotate(-22.53)"/>
      <rect class="cls-3" x="90.93" y="43.2" width="5.29" height="100.06" transform="translate(43.31 215.4) rotate(-112.53)"/>
      <rect class="cls-3" x="90.93" y="43.2" width="5.29" height="100.06" transform="translate(42.73 -28.68) rotate(22.47)"/>
      <rect class="cls-3" x="90.93" y="43.2" width="5.29" height="100.06" transform="translate(-28.34 144.08) rotate(-67.53)"/>
      <g>
        <rect class="cls-2" x="90.93" y="53.78" width="5.29" height="5.29"/>
        <rect class="cls-1" x="90.93" y="43.2" width="5.29" height="5.29"/>
        <rect class="cls-2" x="90.93" y="127.4" width="5.29" height="5.29"/>
        <rect class="cls-1" x="90.93" y="137.98" width="5.29" height="5.29"/>
      </g>
      <g>
        <rect class="cls-1" x="64.9" y="64.57" width="5.29" height="5.29" transform="translate(-27.74 67.45) rotate(-45)"/>
        <rect class="cls-2" x="57.42" y="57.08" width="5.29" height="5.29" transform="translate(-24.64 59.97) rotate(-45)"/>
        <rect class="cls-2" x="68.65" y="68.31" width="5.29" height="5.29" transform="translate(-29.29 71.19) rotate(-45)"/>
        <rect class="cls-2" x="72.39" y="72.05" width="5.29" height="5.29" transform="translate(-30.84 74.93) rotate(-45)"/>
        <rect class="cls-2" x="105.73" y="105.39" width="5.29" height="5.29" transform="translate(-44.65 108.28) rotate(-45)"/>
        <rect class="cls-2" x="113.22" y="112.88" width="5.29" height="5.29" transform="translate(-47.75 115.76) rotate(-45)"/>
        <rect class="cls-1" x="116.96" y="116.62" width="5.29" height="5.29" transform="translate(-49.3 119.5) rotate(-45)"/>
        <rect class="cls-2" x="120.7" y="120.36" width="5.29" height="5.29" transform="translate(-50.85 123.24) rotate(-45)"/>
      </g>
      <g>
        <rect class="cls-2" x="134.72" y="108.7" width="5.29" height="5.29" transform="translate(292.76 26.97) rotate(112.47)"/>
        <rect class="cls-2" x="129.83" y="106.68" width="5.29" height="5.29" transform="translate(284.13 28.69) rotate(112.47)"/>
        <rect class="cls-2" x="120.05" y="102.64" width="5.29" height="5.29" transform="translate(266.88 32.14) rotate(112.47)"/>
        <rect class="cls-1" x="115.17" y="100.61" width="5.29" height="5.29" transform="translate(258.26 33.86) rotate(112.47)"/>
        <rect class="cls-2" x="110.28" y="98.59" width="5.29" height="5.29" transform="translate(249.63 35.58) rotate(112.47)"/>
        <rect class="cls-2" x="71.58" y="82.59" width="5.29" height="5.29" transform="translate(181.36 49.22) rotate(112.47)"/>
        <rect class="cls-1" x="66.7" y="80.57" width="5.29" height="5.29" transform="translate(172.74 50.94) rotate(112.47)"/>
        <rect class="cls-2" x="56.92" y="76.52" width="5.29" height="5.29" transform="translate(155.49 54.39) rotate(112.47)"/>
        <rect class="cls-2" x="47.14" y="72.48" width="5.29" height="5.29" transform="translate(138.24 57.83) rotate(112.47)"/>
      </g>
      <g>
        <rect class="cls-1" x="74.8" y="51.71" width="5.29" height="5.29" transform="translate(-14.92 33.82) rotate(-22.53)"/>
        <rect class="cls-2" x="78.86" y="61.48" width="5.29" height="5.29" transform="translate(-18.35 36.12) rotate(-22.53)"/>
        <rect class="cls-2" x="98.95" y="109.93" width="5.29" height="5.29" transform="translate(-35.38 47.52) rotate(-22.53)"/>
        <rect class="cls-2" x="100.98" y="114.82" width="5.29" height="5.29" transform="translate(-37.1 48.67) rotate(-22.53)"/>
        <rect class="cls-2" x="105.03" y="124.59" width="5.29" height="5.29" transform="translate(-40.53 50.97) rotate(-22.53)"/>
        <rect class="cls-1" x="107.06" y="129.47" width="5.29" height="5.29" transform="translate(-42.25 52.12) rotate(-22.53)"/>
        <rect class="cls-2" x="109.09" y="134.36" width="5.29" height="5.29" transform="translate(-43.97 53.27) rotate(-22.53)"/>
      </g>
    </g>
  </g>
</svg>